HIERARCHY
ROOT Hips
{
	OFFSET 0.00000 0.00000 0.00000
	CHANNELS 6 Xposition Yposition Zposition Zrotation Yrotation Xrotation 
	JOINT LHipJoint
	{
		OFFSET 0 0 0
		CHANNELS 3 Zrotation Yrotation Xrotation
		JOINT LeftUpLeg
		{
			OFFSET 1.62964 -1.40469 0.78906
			CHANNELS 3 Zrotation Yrotation Xrotation
			JOINT LeftLeg
			{
				OFFSET 2.29640 -6.30932 0.00000
				CHANNELS 3 Zrotation Yrotation Xrotation
				JOINT LeftFoot
				{
					OFFSET 2.29451 -6.30412 0.00000
					CHANNELS 3 Zrotation Yrotation Xrotation
					JOINT LeftToeBase
					{
						OFFSET 0.03611 -0.09921 1.56387
						CHANNELS 3 Zrotation Yrotation Xrotation
						End Site
						{
							OFFSET 0.00000 -0.00000 0.80291
						}
					}
				}
			}
		}
	}
	JOINT RHipJoint
	{
		OFFSET 0 0 0
		CHANNELS 3 Zrotation Yrotation Xrotation
		JOINT RightUpLeg
		{
			OFFSET -1.73712 -1.40469 0.78906
			CHANNELS 3 Zrotation Yrotation Xrotation
			JOINT RightLeg
			{
				OFFSET -2.28137 -6.26801 0.00000
				CHANNELS 3 Zrotation Yrotation Xrotation
				JOINT RightFoot
				{
					OFFSET -2.28681 -6.28298 0.00000
					CHANNELS 3 Zrotation Yrotation Xrotation
					JOINT RightToeBase
					{
						OFFSET -0.15927 -0.43759 1.61103
						CHANNELS 3 Zrotation Yrotation Xrotation
						End Site
						{
							OFFSET -0.00000 -0.00000 0.84630
						}
					}
				}
			}
		}
	}
	JOINT LowerBack
	{
		OFFSET 0 0 0
		CHANNELS 3 Zrotation Yrotation Xrotation
		JOINT Spine
		{
			OFFSET -0.04227 2.04338 -0.00225
			CHANNELS 3 Zrotation Yrotation Xrotation
			JOINT Spine1
			{
				OFFSET -0.02148 2.04482 -0.04273
				CHANNELS 3 Zrotation Yrotation Xrotation
				JOINT Neck
				{
					OFFSET 0 0 0
					CHANNELS 3 Zrotation Yrotation Xrotation
					JOINT Neck1
					{
						OFFSET 0.09180 1.44629 0.19359
						CHANNELS 3 Zrotation Yrotation Xrotation
						JOINT Head
						{
							OFFSET 0.00887 1.40645 0.14750
							CHANNELS 3 Zrotation Yrotation Xrotation
							End Site
							{
								OFFSET -0.00669 1.50671 0.03707
							}
						}
					}
				}
				JOINT LeftShoulder
				{
					OFFSET 0 0 0
					CHANNELS 3 Zrotation Yrotation Xrotation
					JOINT LeftArm
					{
						OFFSET 2.17674 1.86763 -0.06520
						CHANNELS 3 Zrotation Yrotation Xrotation
						JOINT LeftForeArm
						{
							OFFSET 4.65776 -0.00000 0.00000
							CHANNELS 3 Zrotation Yrotation Xrotation
							JOINT LeftHand
							{
								OFFSET 3.55539 -0.00000 0.00000
								CHANNELS 3 Zrotation Yrotation Xrotation
								JOINT LeftFingerBase
								{
									OFFSET 0 0 0
									CHANNELS 3 Zrotation Yrotation Xrotation
									JOINT LeftHandIndex1
									{
										OFFSET 0.70726 -0.00000 0.00000
										CHANNELS 3 Zrotation Yrotation Xrotation
										End Site
										{
											OFFSET 0.57022 -0.00000 0.00000
										}
									}
								}
								JOINT LThumb
								{
									OFFSET 0 0 0
									CHANNELS 3 Zrotation Yrotation Xrotation
									End Site
									{
										OFFSET 0.57892 -0.00000 0.57892
									}
								}
							}
						}
					}
				}
				JOINT RightShoulder
				{
					OFFSET 0 0 0
					CHANNELS 3 Zrotation Yrotation Xrotation
					JOINT RightArm
					{
						OFFSET -2.80694 1.55459 -0.32496
						CHANNELS 3 Zrotation Yrotation Xrotation
						JOINT RightForeArm
						{
							OFFSET -4.71925 -0.00000 -0.00000
							CHANNELS 3 Zrotation Yrotation Xrotation
							JOINT RightHand
							{
								OFFSET -3.56990 -0.00000 0.00000
								CHANNELS 3 Zrotation Yrotation Xrotation
								JOINT RightFingerBase
								{
									OFFSET 0 0 0
									CHANNELS 3 Zrotation Yrotation Xrotation
									JOINT RightHandIndex1
									{
										OFFSET -0.50776 -0.00000 0.00000
										CHANNELS 3 Zrotation Yrotation Xrotation
										End Site
										{
											OFFSET -0.40937 -0.00000 0.00000
										}
									}
								}
								JOINT RThumb
								{
									OFFSET 0 0 0
									CHANNELS 3 Zrotation Yrotation Xrotation
									End Site
									{
										OFFSET -0.41562 -0.00000 0.41562
									}
								}
							}
						}
					}
				}
			}
		}
	}
}
MOTION
Frames: 13
Frame Time: .0083333
10.0415 23.0860 9.4893 208.7370 -245.0090 -126.3840 0.0000 0.0000 0.0000 3.0951 -28.8650 -51.6587 5.7568 14.1884 43.9976 0.8441 15.0285 18.2113 5.6727 -14.1035 -43.6537 0.0000 0.0000 0.0000 16.2147 18.6787 -38.1858 -3.1550 -10.9418 32.0837 -1.5756 -7.8437 22.4704 -1.9274 8.7132 -24.9022 -5.1921 -2.7855 -19.8994 -0.1979 -2.4096 -1.5126 2.0726 -1.3234 9.7232 -3.4934 -0.6075 -1.2772 6.6485 -1.1233 9.1268 2.7938 -0.4065 3.2626 0.0000 -0.0000 0.0000 -74.5187 -13.1881 62.6536 45.1965 -50.8644 -22.3910 -0.0000 0.0000 -3.8087 31.2778 -19.4146 -11.4160 -7.1250 0.0000 -0.0000 1.8967 7.5798 -1.6309 0.0000 -0.0000 0.0000 92.8060 -16.3221 29.1175 -55.6592 55.0377 -30.7555 0.0000 -0.0000 -9.2097 -13.1800 -43.8997 9.2232 7.1250 -0.0000 -0.0000 38.7376 -71.2720 -25.3908
10.0799 23.0171 9.5511 214.0300 -247.7940 -121.2750 0.0000 0.0000 0.0000 2.5344 -28.1630 -52.0283 6.0025 14.4308 44.9919 0.7659 15.1357 17.6428 5.6606 -14.0912 -43.6040 0.0000 0.0000 0.0000 15.2019 19.1595 -37.9730 -3.1411 -10.9200 32.0104 -1.4741 -7.4881 21.7224 -1.9476 8.7561 -25.0354 -5.3914 -2.9422 -19.9173 -0.1883 -2.5658 -1.5877 2.1530 -1.4004 9.6718 -3.4389 -0.6394 -0.9301 6.6533 -1.1663 9.1422 2.7818 -0.4271 3.2040 -0.0000 -0.0000 0.0000 -73.0700 -12.8670 61.8068 46.0855 -51.2893 -23.0827 -0.0000 0.0000 -3.8207 31.3248 -19.4802 -11.4728 -7.1250 0.0000 -0.0000 1.9173 7.4962 -1.6517 -0.0000 -0.0000 0.0000 92.6491 -16.7795 28.9676 -55.3297 54.9312 -30.4856 0.0000 -0.0000 -9.3102 -10.7491 -44.7071 7.6068 7.1250 -0.0000 -0.0000 42.9475 -71.0053 -28.2063
10.1238 22.9349 9.6223 220.0430 -250.0440 -115.4420 0.0000 0.0000 0.0000 1.8258 -27.0961 -52.2214 6.2164 14.6348 45.8441 0.6495 15.4535 16.8426 5.3551 -13.7729 -42.3352 0.0000 0.0000 0.0000 13.9784 20.2498 -37.5135 -3.0992 -10.8540 31.7890 -1.3578 -7.4919 20.8339 -1.7957 8.4268 -24.0181 -5.7071 -2.9576 -19.9576 -0.3173 -2.4907 -1.7297 2.2150 -1.3638 9.5382 -3.3806 -0.6719 -0.4990 6.6683 -1.2097 9.1471 2.7722 -0.4482 3.1263 0.0000 0.0000 0.0000 -71.6830 -12.5021 60.8940 46.9043 -51.6680 -23.7233 -0.0000 0.0000 -4.1207 31.1714 -19.3154 -11.3151 -7.1250 0.0000 -0.0000 1.8431 7.7134 -1.5799 0.0000 0.0000 0.0000 92.6822 -17.4467 28.8160 -54.9963 54.8220 -30.2130 0.0000 -0.0000 -8.8912 -10.9185 -44.2165 7.6618 7.1250 -0.0000 -0.0000 41.7185 -70.7253 -27.0701
10.1716 22.8386 9.6936 227.5310 -251.9790 -107.9640 0.0000 0.0000 0.0000 1.1754 -26.0196 -52.7231 6.4507 14.8513 46.7649 0.5928 15.4040 16.3593 5.2634 -13.6744 -41.9487 0.0000 0.0000 0.0000 12.6185 21.2839 -37.3026 -3.0686 -10.8053 31.6260 -1.2393 -7.3071 19.8919 -1.7042 8.2207 -23.3866 -5.9359 -2.9715 -20.2069 -0.5519 -2.4031 -1.8526 2.1085 -1.3158 9.5306 -3.3787 -0.6916 -0.2984 6.6984 -1.2332 9.1487 2.7805 -0.4583 3.0910 -0.0000 0.0000 0.0000 -70.2959 -12.4027 59.7814 47.5044 -51.9380 -24.1949 -0.0000 0.0000 -4.6096 30.7884 -19.0059 -10.9815 -7.1250 0.0000 -0.0000 1.6414 8.1387 -1.3931 -0.0000 0.0000 0.0000 92.9591 -17.9830 28.5419 -54.7801 54.7504 -30.0363 0.0000 -0.0000 -8.1706 -13.4443 -43.0252 9.2639 7.1250 -0.0000 -0.0000 36.6574 -70.7175 -23.4856
10.2210 22.7328 9.7577 236.7510 -253.6550 -98.6436 0.0000 0.0000 0.0000 0.7229 -25.1171 -53.4624 6.7288 15.0992 47.8409 0.5909 15.2191 16.2640 5.3669 -13.7854 -42.3847 0.0000 0.0000 0.0000 11.4143 21.9724 -37.2525 -3.0304 -10.7440 31.4214 -1.1334 -6.6393 19.0106 -1.9896 8.8445 -25.3100 -6.0159 -3.0891 -20.4991 -0.6859 -2.4919 -2.0056 1.9761 -1.3469 9.5256 -3.3203 -0.6681 -0.2951 6.6645 -1.1955 9.1629 2.7592 -0.4360 3.0916 -0.0000 0.0000 0.0000 -68.9158 -12.2764 58.3406 47.8029 -52.0700 -24.4302 -0.0000 0.0000 -5.0943 30.6882 -19.3198 -11.1085 -7.1250 0.0000 -0.0000 1.5346 7.8069 -1.3124 -0.0000 0.0000 0.0000 93.1498 -18.3231 28.2207 -54.7100 54.7271 -29.9791 0.0000 -0.0000 -8.6428 -13.0453 -42.7549 8.9390 7.1250 -0.0000 -0.0000 36.5500 -70.3807 -23.1500
10.2695 22.6188 9.8210 246.9480 -254.9490 -88.2992 0.0000 0.0000 0.0000 0.6781 -24.3688 -54.1911 7.0305 15.3575 48.9896 0.4776 15.6978 15.5299 5.1062 -13.5024 -41.2795 0.0000 0.0000 0.0000 10.3298 22.9773 -37.1267 -2.9806 -10.6637 31.1537 -1.0336 -6.0836 18.1477 -2.2653 9.3981 -27.0489 -6.0859 -3.1168 -20.7935 -0.7166 -2.4738 -2.2231 1.9845 -1.3252 9.4446 -3.1245 -0.6403 -0.1711 6.5725 -1.1512 9.1785 2.6917 -0.4085 3.0667 0.0000 0.0000 0.0000 -67.1112 -11.6353 57.0711 49.3789 -52.7419 -25.6790 -0.0000 0.0000 -5.6732 30.6265 -20.0849 -11.4921 -7.1250 0.0000 -0.0000 1.3894 6.9636 -1.2111 0.0000 0.0000 0.0000 93.2162 -18.8603 28.2947 -54.1049 54.5226 -29.4857 0.0000 -0.0000 -7.3141 -14.3236 -42.8741 9.8555 7.1250 -0.0000 -0.0000 35.4136 -70.9002 -22.7616
10.3237 22.4888 9.8816 258.2050 -255.7340 -76.9129 0.0000 0.0000 0.0000 0.7612 -23.6972 -54.9475 7.3635 15.6305 50.2362 0.3485 16.1035 14.6199 4.9204 -13.2936 -40.4778 0.0000 0.0000 0.0000 9.2133 24.2718 -36.8898 -2.9348 -10.5887 30.9049 -0.9551 -5.7333 17.4395 -2.4012 9.6559 -27.8695 -6.0693 -3.0634 -21.1126 -0.7165 -2.3690 -2.4212 2.0020 -1.2604 9.3884 -3.0981 -0.6457 -0.0465 6.5762 -1.1527 9.1732 2.6873 -0.4067 3.0414 -0.0000 0.0000 0.0000 -65.5768 -11.2683 55.8060 50.6192 -53.2422 -26.6695 -0.0000 0.0000 -6.1322 30.3701 -20.2581 -11.4696 -7.1250 0.0000 -0.0000 1.2031 6.8237 -1.0519 -0.0000 0.0000 0.0000 93.2164 -19.3176 28.0607 -53.8977 54.4515 -29.3171 0.0000 -0.0000 -7.1553 -15.8556 -43.1093 10.9844 7.1250 -0.0000 -0.0000 34.2126 -71.6034 -22.4413
10.3854 22.3407 9.9317 270.3000 -255.7980 -64.7355 0.0000 0.0000 0.0000 0.5333 -22.9383 -55.7473 7.7164 15.9067 51.5348 0.3210 16.2014 14.4305 4.9543 -13.3322 -40.6250 0.0000 0.0000 0.0000 8.0068 25.3830 -36.5559 -2.8680 -10.4783 30.5399 -0.9045 -5.4142 16.9721 -2.6650 10.1318 -29.4047 -6.1124 -3.3359 -21.3693 -0.4238 -2.7203 -2.5462 2.2388 -1.4281 9.4344 -3.6523 -0.5012 -0.2447 6.6430 -0.9459 9.1772 2.8206 -0.3186 3.0766 -0.0000 -0.0000 0.0000 -64.6696 -10.7581 53.9351 51.9793 -53.7633 -27.7628 -0.0000 0.0000 -6.8666 30.3649 -19.1108 -10.8582 -7.1250 0.0000 -0.0000 1.3566 8.1054 -1.1521 -0.0000 -0.0000 0.0000 92.2744 -19.5218 28.7982 -53.7264 54.3922 -29.1777 0.0000 -0.0000 -7.6347 -17.1727 -43.3030 11.9668 7.1250 -0.0000 -0.0000 33.1441 -72.2108 -22.1179
10.4513 22.1787 9.9792 281.5590 -255.1620 -53.4062 0.0000 0.0000 0.0000 0.0433 -21.9935 -56.5173 8.0572 16.1611 52.7684 0.3332 16.1844 14.5292 4.9810 -13.3624 -40.7407 0.0000 0.0000 0.0000 6.6377 26.5507 -36.1269 -2.7856 -10.3396 30.0836 -0.8516 -5.4369 16.4581 -2.6494 10.1046 -29.3162 -6.2731 -3.6481 -21.6216 -0.2251 -3.0846 -2.6300 2.4321 -1.6056 9.5298 -4.0784 -0.3275 -0.5952 6.6268 -0.6943 9.2204 2.9054 -0.2048 3.1472 0.0000 -0.0000 0.0000 -63.5005 -10.2880 52.1702 53.5806 -54.3413 -29.0592 -0.0000 0.0000 -7.7538 30.9502 -17.4134 -10.1741 -7.1250 0.0000 -0.0000 1.9567 9.9012 -1.5921 0.0000 -0.0000 0.0000 91.3797 -19.6576 29.7125 -53.4941 54.3111 -28.9890 0.0000 -0.0000 -8.4786 -17.4679 -43.4864 12.2192 7.1250 -0.0000 -0.0000 33.2015 -72.4564 -22.3293
10.5219 22.0052 10.0334 291.5110 -254.0630 -43.3658 0.0000 0.0000 0.0000 -0.3092 -21.1546 -57.3173 8.4173 16.4178 54.0523 0.3297 16.2064 14.5105 5.0584 -13.4493 -41.0744 0.0000 0.0000 0.0000 5.3090 27.8163 -35.6823 -2.7030 -10.1980 29.6202 -0.8004 -5.6881 15.9453 -2.6172 10.0479 -29.1321 -6.4372 -3.5986 -21.9636 -0.4830 -2.9047 -2.7243 2.2869 -1.5087 9.5868 -3.6808 -0.3707 -0.7340 6.5228 -0.7500 9.2508 2.7952 -0.2167 3.1807 -0.0000 0.0000 0.0000 -61.4073 -10.3047 51.1306 54.8060 -54.7591 -30.0575 -0.0000 0.0000 -8.1654 31.4494 -16.8820 -10.0711 -7.1250 0.0000 -0.0000 2.3505 10.4104 -1.8887 -0.0000 0.0000 0.0000 91.9746 -19.8428 29.0951 -53.3075 54.2454 -28.8375 0.0000 -0.0000 -9.1607 -16.3117 -43.2631 11.3409 7.1250 -0.0000 -0.0000 34.0251 -71.8795 -22.5075
10.6066 21.8157 10.0757 299.9690 -252.5280 -34.9114 0.0000 0.0000 0.0000 -0.8151 -20.4067 -57.9518 8.7686 16.6565 55.2864 0.3327 16.3004 14.5873 5.1535 -13.5546 -41.4815 0.0000 0.0000 0.0000 4.1717 28.7547 -35.0042 -2.5999 -10.0173 29.0328 -0.7699 -5.5842 15.6367 -2.7270 10.2395 -29.7558 -6.5143 -3.4675 -22.3926 -0.7623 -2.6242 -2.8144 2.0977 -1.3601 9.6815 -3.4542 -0.4638 -0.7229 6.5389 -0.8758 9.2408 2.7548 -0.2671 3.1801 -0.0000 0.0000 0.0000 -59.7255 -10.1703 50.0428 55.7955 -55.0813 -30.8672 -0.0000 0.0000 -7.5183 31.0488 -18.0748 -10.5799 -7.1250 0.0000 -0.0000 1.9339 9.1355 -1.6033 -0.0000 0.0000 0.0000 92.8074 -20.0278 27.8680 -53.1303 54.1826 -28.6937 0.0000 -0.0000 -9.0522 -14.9703 -42.7513 10.2878 7.1250 -0.0000 -0.0000 34.4666 -71.0254 -22.1987
10.6893 21.6184 10.1222 306.6970 -250.5820 -28.3029 0.0000 0.0000 0.0000 -1.5825 -19.4994 -58.5350 9.1445 16.8998 56.5885 0.3275 16.3980 14.5950 5.1938 -13.5988 -41.6535 0.0000 0.0000 0.0000 2.9983 29.6739 -34.1687 -2.5119 -9.8595 28.5231 -0.7503 -5.2646 15.4366 -2.4019 9.6573 -27.8739 -6.8351 -3.6188 -22.5001 -0.8159 -2.7097 -3.0072 2.1965 -1.3920 9.5436 -3.6472 -0.4007 -0.6253 6.5744 -0.7827 9.2252 2.8047 -0.2258 3.1538 0.0000 -0.0000 0.0000 -58.3077 -9.3511 49.2053 58.0882 -55.7786 -32.7552 -0.0000 0.0000 -8.6763 31.1629 -17.4234 -10.2637 -7.1250 0.0000 -0.0000 2.0936 9.8499 -1.7058 0.0000 -0.0000 0.0000 92.8689 -20.3899 27.5447 -52.8465 54.0809 -28.4637 0.0000 -0.0000 -8.7461 -14.8564 -42.6503 10.1886 7.1250 -0.0000 -0.0000 34.3926 -70.9090 -22.0627
10.7827 21.4074 10.1589 312.3120 -248.5030 -22.8263 0.0000 0.0000 0.0000 -2.1940 -18.6417 -59.0848 9.5257 17.1344 57.8909 0.2183 16.9963 13.9763 4.8549 -13.2186 -40.1922 0.0000 0.0000 0.0000 2.1238 30.4424 -33.0992 -2.3850 -9.6257 27.7729 -0.7485 -4.7185 15.4343 -2.0557 8.9811 -25.7363 -7.0227 -3.7978 -22.7163 -0.8521 -2.8540 -3.1877 2.2161 -1.4478 9.4781 -3.7794 -0.3270 -0.5570 6.5541 -0.6743 9.2482 2.8253 -0.1758 3.1437 0.0000 -0.0000 0.0000 -56.9001 -8.4626 47.9229 59.6966 -56.2286 -34.0888 -0.0000 0.0000 -9.1607 30.7561 -18.3570 -10.6148 -7.1250 0.0000 -0.0000 1.7078 8.8743 -1.4246 0.0000 -0.0000 0.0000 92.7914 -20.8410 27.6088 -52.6317 54.0033 -28.2899 0.0000 -0.0000 -8.7390 -14.8010 -42.8903 10.1948 7.1250 -0.0000 -0.0000 34.9274 -71.0745 -22.5541
